<svg width="512" height="512" viewBox="0 0 512 512" fill="none" xmlns="http://www.w3.org/2000/svg">
  <rect width="512" height="512" rx="136" fill="#0D121D"/>
  <rect x="24" y="24" width="464" height="464" rx="112" stroke="url(#paint0_linear)" stroke-width="24"/>
  <path d="M142 165C151 127 185 100 224 100H288C327 100 361 127 370 165L388 241C397 280 386 321 358 349L310 396C295 411 275 420 256 420C237 420 217 411 202 396L154 349C126 321 115 280 124 241L142 165Z" fill="url(#paint1_linear)"/>
  <path d="M190 121L142 165L198 183L214 144L190 121Z" fill="#FF8E1F"/>
  <path d="M322 121L370 165L314 183L298 144L322 121Z" fill="#FF8E1F"/>
  <path d="M176 224C189 204 211 192 235 192H277C301 192 323 204 336 224L352 249C365 269 361 296 342 311L286 354C277 361 267 365 256 365C245 365 235 361 226 354L170 311C151 296 147 269 160 249L176 224Z" fill="#FFF3DA"/>
  <path d="M207 245C214 227 231 216 250 216H262C281 216 298 227 305 245L311 262C318 283 302 304 280 304H232C210 304 194 283 201 262L207 245Z" fill="#101521"/>
  <path d="M224 274L240 286C250 293 262 293 272 286L288 274" stroke="#FFF3DA" stroke-width="14" stroke-linecap="round"/>
  <circle cx="206" cy="233" r="18" fill="#101521"/>
  <circle cx="306" cy="233" r="18" fill="#101521"/>
  <circle cx="206" cy="233" r="7" fill="#FFBE3D"/>
  <circle cx="306" cy="233" r="7" fill="#FFBE3D"/>
  <path d="M151 164L194 224" stroke="#101521" stroke-width="20" stroke-linecap="round"/>
  <path d="M202 149L224 201" stroke="#101521" stroke-width="18" stroke-linecap="round"/>
  <path d="M361 164L318 224" stroke="#101521" stroke-width="20" stroke-linecap="round"/>
  <path d="M310 149L288 201" stroke="#101521" stroke-width="18" stroke-linecap="round"/>
  <path d="M154 310L202 286" stroke="#101521" stroke-width="18" stroke-linecap="round"/>
  <path d="M358 310L310 286" stroke="#101521" stroke-width="18" stroke-linecap="round"/>
  <defs>
    <linearGradient id="paint0_linear" x1="74" y1="68" x2="452" y2="452" gradientUnits="userSpaceOnUse">
      <stop stop-color="#FFCA54"/>
      <stop offset="1" stop-color="#FF7A1A"/>
    </linearGradient>
    <linearGradient id="paint1_linear" x1="184" y1="114" x2="338" y2="389" gradientUnits="userSpaceOnUse">
      <stop stop-color="#FFDA77"/>
      <stop offset="0.52" stop-color="#FFB83B"/>
      <stop offset="1" stop-color="#F07B1B"/>
    </linearGradient>
  </defs>
</svg>
